<svg xmlns="http://www.w3.org/2000/svg" viewBox="0 0 512 512" fill="none">
  <rect width="512" height="512" rx="96" fill="#3b82f6"/>
  <path d="M256 128c-70.7 0-128 57.3-128 128s57.3 128 128 128 128-57.3 128-128-57.3-128-128-128zm0 208c-44.2 0-80-35.8-80-80s35.8-80 80-80 80 35.8 80 80-35.8 80-80 80z" fill="white"/>
  <path d="M256 96c-88.4 0-160 71.6-160 160s71.6 160 160 160 160-71.6 160-160S344.4 96 256 96zm0 272c-61.9 0-112-50.1-112-112s50.1-112 112-112 112 50.1 112 112-50.1 112-112 112z" fill="white" opacity="0.7"/>
  <text x="256" y="280" font-family="Arial, sans-serif" font-size="72" font-weight="bold" text-anchor="middle" fill="white">WS</text>
</svg>